# xmcd
#
# Track frame offsets:
#	150
#	20300
#	31062
#	38602
#	44768
#	48354
#	55306
#	62704
#	68099
#	83465
#	95043
#	103171
#	116680
#	130676
#	136804
#	148205
#	156047
#	166858
#	174845
#	186703
#	193812
#	204527
#
# Disc length: 2902 seconds
#
# Revision: 0
# Processed by: cddbd v1.5.2PL0 Copyright (c) Steve Scherf et al.
# Submitted via: EasyCDDAExtractor 2010.6.0.0
#
DISCID=350b5416
DTITLE=Vladimir Vysotsky - 07 Большой Каретный (На Концертах, №7)
DYEAR=2002
DGENRE=Vocal
TTITLE0=Большой Каретный
TTITLE1=Серебряные Струны
TTITLE2=Дайте Собакам Мяса
TTITLE3=А Люди Все Роптали И Роптали...
TTITLE4=Зарисовка В Ленинграде
TTITLE5=Гололед
TTITLE6=Цыганская Песня
TTITLE7=Лежит Камень В Степи
TTITLE8=Жил-Был Добрый Дурачина-Простофиля...
TTITLE9=Так Оно И Есть...
TTITLE10=Вот И Разошлись Пути-Дороги Вдруг...
TTITLE11=Тот, Кто Раньше С Нею Был
TTITLE12=Банька По-Черному
TTITLE13=Эй, Шофер, Вези - Бутырский Хутор...
TTITLE14=Городской Романс
TTITLE15=Наводчица
TTITLE16=Песня Про Стукача
TTITLE17=Я Любил И Женщин И Проказы...
TTITLE18=За Меня Невеста Отрыдает Честно...
TTITLE19=Бодайбо
TTITLE20=Все Ушли На Фронт
TTITLE21=Штрафные Батальоны
EXTD=
EXTT0=
EXTT1=
EXTT2=
EXTT3=
EXTT4=
EXTT5=
EXTT6=
EXTT7=
EXTT8=
EXTT9=
EXTT10=
EXTT11=
EXTT12=
EXTT13=
EXTT14=
EXTT15=
EXTT16=
EXTT17=
EXTT18=
EXTT19=
EXTT20=
EXTT21=
PLAYORDER=
